# xmcd
#
# Track frame offsets: 
#        150
#        14025
#        25545
#        35570
#        48240
#        60970
#        73640
#        85625
#        97830
#        109335
#        121160
#        131250
#        143887
#        154627
#        165125
#        175842
#        186242
#        198760
#        210682
#        226612
#        240205
#        251147
#        266960
#        280497
#        294292
#        306405
#        319512
#
# Disc length: 4430 seconds
#
# Revision: 0
# Processed by: cddbd v1.5.1PL0 Copyright (c) Steve Scherf et al.
# Submitted via: ExactAudioCopy v0.95a4
#
DISCID=65114c1b
DTITLE=Jimmy Reed - The EP Collection
DYEAR=2000
DGENRE=Blues
TTITLE0=You Don't Have To Go
TTITLE1=Boogie In The Dark
TTITLE2=Ain't That Lovin' You Baby
TTITLE3=Can't Stand To See You Go
TTITLE4=You Got Me Dizzy
TTITLE5=The Sun Is Shining
TTITLE6=Honest I Do
TTITLE7=A String To Your Heart
TTITLE8=You Got Me Crying
TTITLE9=I'm Gonna Get My Baby
TTITLE10=I Wanna Be Loved
TTITLE11=Caress Me Baby
TTITLE12=I Know It's A Sin
TTITLE13=Take Out Some Insurance
TTITLE14=Baby What You Want Me To Do
TTITLE15=Found Love
TTITLE16=Big Boss Man
TTITLE17=Bright Lights,  Big City
TTITLE18=Cold And Lonesome
TTITLE19=I'm Gonna Help You
TTITLE20=Up Tight
TTITLE21=I'm Trying To Please You
TTITLE22=Help Yourself
TTITLE23=Heading For A Fall (Things Ain't Like They Used To Be)
TTITLE24=A New Leaf
TTITLE25=I'm Going Upside Your Head
TTITLE26=Shame, Shame, Shame
EXTD=
EXTT0=
EXTT1=
EXTT2=
EXTT3=
EXTT4=
EXTT5=
EXTT6=
EXTT7=
EXTT8=
EXTT9=
EXTT10=
EXTT11=
EXTT12=
EXTT13=
EXTT14=
EXTT15=
EXTT16=
EXTT17=
EXTT18=
EXTT19=
EXTT20=
EXTT21=
EXTT22=
EXTT23=
EXTT24=
EXTT25=
EXTT26=
PLAYORDER=
